<?xml version="1.0" encoding="utf-8"?>
<!-- Generator: Adobe Illustrator 21.1.0, SVG Export Plug-In . SVG Version: 6.00 Build 0)  -->
<svg version="1.1"
	 id="svg2" xmlns:cc="http://creativecommons.org/ns#" xmlns:dc="http://purl.org/dc/elements/1.1/" xmlns:inkscape="http://www.inkscape.org/namespaces/inkscape" xmlns:rdf="http://www.w3.org/1999/02/22-rdf-syntax-ns#" xmlns:sodipodi="http://sodipodi.sourceforge.net/DTD/sodipodi-0.dtd" xmlns:svg="http://www.w3.org/2000/svg"
	 xmlns="http://www.w3.org/2000/svg" xmlns:xlink="http://www.w3.org/1999/xlink" x="0px" y="0px" viewBox="0 0 32 32"
	 style="enable-background:new 0 0 32 32;" xml:space="preserve">
<style type="text/css">
	.st0{fill:none;}
	.st1{fill:#FFFFFF;}
</style>
<g id="background">
	<rect y="0" class="st0" width="32" height="32"/>
</g>
<g id="news_1_">
	<path class="st1" d="M4,14h20v-2H4V14z M15,26h7v-2h-7V26z M15,22h9v-2h-9V22z M15,18h9v-2h-9V18z M4,26h9V16H4V26z M28,10V6H0v22
		c0,0,0,4,4,4h25c0,0,3-0.1,3-4V10H28z M4,30c-2,0-2-2-2-2V8h24v20c0,0.9,0.3,1.6,0.7,2H4z"/>
</g>
</svg>
